<?xml version="1.0"?>
<!DOCTYPE svg PUBLIC "-//W3C//DTD SVG 1.1//EN" "http://www.w3.org/Graphics/SVG/1.1/DTD/svg11.dtd">
<svg width="768.06mm" height="298.56mm" viewBox="0 0 768.06 298.56" xmlns="http://www.w3.org/2000/svg" version="1.1">
<g id="Sketch" transform="translate(264.030000,89.911803) scale(1,-1)">
<path id="Sketch_w0000"  d="M -256.5 82.38180337601494 L -72.0 82.38180337601496 L -72.0 -132.11819662398506 L -256.5 -132.11819662398506 L -256.5 82.38180337601494 " stroke="#000000" stroke-width="0.35 px" style="stroke-width:0.35;stroke-miterlimit:4;stroke-dasharray:none;fill:none;fill-opacity:1;fill-rule: evenodd"/>
<circle cx="-214.25" cy="75.13180337601494" r="1.75" stroke="#000000" stroke-width="0.35 px" style="stroke-width:0.35;stroke-miterlimit:4;stroke-dasharray:none;fill:none"/>
<circle cx="-114.25000000000001" cy="75.13180337601494" r="1.75" stroke="#000000" stroke-width="0.35 px" style="stroke-width:0.35;stroke-miterlimit:4;stroke-dasharray:none;fill:none"/>
<circle cx="-214.25000000000003" cy="-124.86819662398504" r="1.75" stroke="#000000" stroke-width="0.35 px" style="stroke-width:0.35;stroke-miterlimit:4;stroke-dasharray:none;fill:none"/>
<circle cx="-114.25000000000001" cy="-124.86819662398506" r="1.75" stroke="#000000" stroke-width="0.35 px" style="stroke-width:0.35;stroke-miterlimit:4;stroke-dasharray:none;fill:none"/>
<path id="Sketch_w0005"  d="M -69.0 82.38180337601494 L -3.0 82.38180337601494 L -3.0 -132.11819662398506 L -69.0 -132.11819662398506 L -69.0 82.38180337601494 " stroke="#000000" stroke-width="0.35 px" style="stroke-width:0.35;stroke-miterlimit:4;stroke-dasharray:none;fill:none;fill-opacity:1;fill-rule: evenodd"/>
<path id="Sketch_w0006"  d="M -256.5 -135.11819662398506 L -66.0 -135.11819662398506 L -66.0 -201.11819662398506 L -256.5 -201.11819662398506 L -256.5 -135.11819662398506 " stroke="#000000" stroke-width="0.35 px" style="stroke-width:0.35;stroke-miterlimit:4;stroke-dasharray:none;fill:none;fill-opacity:1;fill-rule: evenodd"/>
<path id="Sketch_w0007"  d="M 0.0 82.38180337601494 L 66.0 82.38180337601494 L 66.0 -132.11819662398506 L 0.0 -132.11819662398506 L 0.0 82.38180337601494 " stroke="#000000" stroke-width="0.35 px" style="stroke-width:0.35;stroke-miterlimit:4;stroke-dasharray:none;fill:none;fill-opacity:1;fill-rule: evenodd"/>
<path id="Sketch_w0008"  d="M -63.0 -135.11819662398506 L 14.250000000000004 -135.11819662398506 A 15 15 0 0 1 44.25 -135.118L 121.5 -135.11819662398506 L 121.5 -195.11819662398506 L -63.0 -195.11819662398506 L -63.0 -135.11819662398506 " stroke="#000000" stroke-width="0.35 px" style="stroke-width:0.35;stroke-miterlimit:4;stroke-dasharray:none;fill:none;fill-opacity:1;fill-rule: evenodd"/>
<path id="Sketch_w0009"  d="M 69.0 82.38180337601494 L 253.5 82.38180337601494 L 253.5 -132.11819662398506 L 69.0 -132.11819662398506 L 69.0 82.38180337601494 " stroke="#000000" stroke-width="0.35 px" style="stroke-width:0.35;stroke-miterlimit:4;stroke-dasharray:none;fill:none;fill-opacity:1;fill-rule: evenodd"/>
<path id="Sketch_w0010"  d="M 124.5 -135.11819662398506 L 309.0 -135.11819662398506 L 309.0 -195.11819662398506 L 124.5 -195.11819662398506 L 124.5 -135.11819662398506 " stroke="#000000" stroke-width="0.35 px" style="stroke-width:0.35;stroke-miterlimit:4;stroke-dasharray:none;fill:none;fill-opacity:1;fill-rule: evenodd"/>
<path id="Sketch_w0011"  d="M 201.75 -160.11819662398506 A 15 15 0 0 1 201.75 -190.118L 231.75 -190.11819662398506 A 15 15 0 1 1 231.75 -160.118L 201.75 -160.11819662398506 " stroke="#000000" stroke-width="0.35 px" style="stroke-width:0.35;stroke-miterlimit:4;stroke-dasharray:none;fill:none;fill-opacity:1;fill-rule: evenodd"/>
<path id="Sketch_w0012"  d="M 312.0 -135.11819662398506 L 496.5 -135.11819662398506 L 496.5 -195.11819662398506 L 312.0 -195.11819662398506 L 312.0 -135.11819662398506 " stroke="#000000" stroke-width="0.35 px" style="stroke-width:0.35;stroke-miterlimit:4;stroke-dasharray:none;fill:none;fill-opacity:1;fill-rule: evenodd"/>
<circle cx="161.25" cy="68.642616" r="5.0" stroke="#000000" stroke-width="0.35 px" style="stroke-width:0.35;stroke-miterlimit:4;stroke-dasharray:none;fill:none"/>
<path id="Sketch_w0014"  d="M 322.0 -180.11819662398506 A 5 5 0 0 1 322 -190.118L 486.5 -190.11819662398506 A 5 5 0 1 1 486.5 -180.118L 322.0 -180.11819662398506 " stroke="#000000" stroke-width="0.35 px" style="stroke-width:0.35;stroke-miterlimit:4;stroke-dasharray:none;fill:none;fill-opacity:1;fill-rule: evenodd"/>
<path id="Sketch_w0015"  d="M 256.5 82.38180337601494 L 441.0 82.38180337601494 L 441.0 -132.11819662398506 L 256.5 -132.11819662398506 L 256.5 82.38180337601494 " stroke="#000000" stroke-width="0.35 px" style="stroke-width:0.35;stroke-miterlimit:4;stroke-dasharray:none;fill:none;fill-opacity:1;fill-rule: evenodd"/>
<circle cx="348.75" cy="49.51295738282881" r="20.0" stroke="#000000" stroke-width="0.35 px" style="stroke-width:0.35;stroke-miterlimit:4;stroke-dasharray:none;fill:none"/>
<title>b'Sketch'</title>
</g>
</svg>