<?xml version="1.0"?>
<!DOCTYPE svg PUBLIC "-//W3C//DTD SVG 1.1//EN" "http://www.w3.org/Graphics/SVG/1.1/DTD/svg11.dtd">
<svg width="761.94mm" height="367.45622032236014mm" viewBox="0 0 761.94 367.45622032236014" xmlns="http://www.w3.org/2000/svg" version="1.1">
<g id="Sketch" transform="translate(448.618048,89.886517) scale(1,-1)">
<path id="Sketch_w0000"  d="M -441.1480477175356 82.40029701372112 L -72.14804771753558 82.40029701372112 L -72.14804771753558 -132.09970298627888 L -441.1480477175356 -132.09970298627888 L -441.1480477175356 82.40029701372112 " stroke="#000000" stroke-width="0.35 px" style="stroke-width:0.35;stroke-miterlimit:4;stroke-dasharray:none;fill:none;fill-opacity:1;fill-rule: evenodd"/>
<circle cx="-306.6480477175356" cy="75.1502970137211" r="1.75" stroke="#000000" stroke-width="0.35 px" style="stroke-width:0.35;stroke-miterlimit:4;stroke-dasharray:none;fill:none"/>
<circle cx="-206.64804771753558" cy="75.1502970137211" r="1.75" stroke="#000000" stroke-width="0.35 px" style="stroke-width:0.35;stroke-miterlimit:4;stroke-dasharray:none;fill:none"/>
<circle cx="-306.6480477175356" cy="-124.84970298627886" r="1.75" stroke="#000000" stroke-width="0.35 px" style="stroke-width:0.35;stroke-miterlimit:4;stroke-dasharray:none;fill:none"/>
<circle cx="-206.64804771753558" cy="-124.84970298627888" r="1.75" stroke="#000000" stroke-width="0.35 px" style="stroke-width:0.35;stroke-miterlimit:4;stroke-dasharray:none;fill:none"/>
<path id="Sketch_w0005"  d="M -441.1480477175356 -135.09970298627888 L -66.14804771753558 -135.09970298627888 L -66.14804771753558 -201.09970298627888 L -441.1480477175356 -201.09970298627888 L -441.1480477175356 -135.09970298627888 " stroke="#000000" stroke-width="0.35 px" style="stroke-width:0.35;stroke-miterlimit:4;stroke-dasharray:none;fill:none;fill-opacity:1;fill-rule: evenodd"/>
<path id="Sketch_w0006"  d="M -63.148047717535576 -135.09970298627888 L 106.35195228246442 -135.09970298627888 A 15 15 0 1 1 136.352 -135.1L 305.8519522824644 -135.09970298627886 L 305.8519522824644 -195.09970298627886 L -63.148047717535576 -195.09970298627886 L -63.148047717535576 -135.09970298627888 " stroke="#000000" stroke-width="0.35 px" style="stroke-width:0.35;stroke-miterlimit:4;stroke-dasharray:none;fill:none;fill-opacity:1;fill-rule: evenodd"/>
<path id="Sketch_w0007"  d="M -69.14804771753558 82.41651733608123 L 299.8519522824644 82.41651733608123 L 299.8519522824644 -132.08348266391877 L -69.14804771753558 -132.08348266391877 L -69.14804771753558 82.41651733608123 " stroke="#000000" stroke-width="0.35 px" style="stroke-width:0.35;stroke-miterlimit:4;stroke-dasharray:none;fill:none;fill-opacity:1;fill-rule: evenodd"/>
<circle cx="115.3519522824644" cy="-24.83348266391878" r="20.0" stroke="#000000" stroke-width="0.35 px" style="stroke-width:0.35;stroke-miterlimit:4;stroke-dasharray:none;fill:none"/>
<circle cx="-176.648911" cy="55.144226" r="3.0" stroke="#000000" stroke-width="0.35 px" style="stroke-width:0.35;stroke-miterlimit:4;stroke-dasharray:none;fill:none"/>
<path id="Sketch_w0010"  d="M -441.1480477175356 -204.09970298627888 L -226.64804771753558 -204.09970298627888 L -226.64804771753558 -270.0997029862789 L -441.1480477175356 -270.0997029862789 L -441.1480477175356 -204.09970298627888 " stroke="#000000" stroke-width="0.35 px" style="stroke-width:0.35;stroke-miterlimit:4;stroke-dasharray:none;fill:none;fill-opacity:1;fill-rule: evenodd"/>
<path id="Sketch_w0011"  d="M -223.64804771753558 -204.09970298627888 L -9.148047717535576 -204.09970298627888 L -9.148047717535576 -270.0997029862789 L -223.64804771753558 -270.0997029862789 L -223.64804771753558 -204.09970298627888 " stroke="#000000" stroke-width="0.35 px" style="stroke-width:0.35;stroke-miterlimit:4;stroke-dasharray:none;fill:none;fill-opacity:1;fill-rule: evenodd"/>
<path id="Sketch_w0012"  d="M -341.8980477175355 -214.09970298627888 L -325.8980477175355 -214.09970298627888 L -325.8980477175355 -236.09970298627888 L -341.8980477175355 -236.09970298627888 L -341.8980477175355 -214.09970298627888 " stroke="#000000" stroke-width="0.35 px" style="stroke-width:0.35;stroke-miterlimit:4;stroke-dasharray:none;fill:none;fill-opacity:1;fill-rule: evenodd"/>
<title>b'Sketch'</title>
</g>
</svg>