<?xml version="1.0"?>
<!DOCTYPE svg PUBLIC "-//W3C//DTD SVG 1.1//EN" "http://www.w3.org/Graphics/SVG/1.1/DTD/svg11.dtd">
<svg width="761.94mm" height="367.45622074691767mm" viewBox="0 0 761.94 367.45622074691767" xmlns="http://www.w3.org/2000/svg" version="1.1">
<g id="Sketch" transform="translate(448.618042,89.886517) scale(1,-1)">
<path id="Sketch_w0000"  d="M -441.1480424186867 82.4002965891633 L -72.14804241868677 82.4002965891633 L -72.14804241868677 -132.0997034108367 L -441.1480424186867 -132.0997034108367 L -441.1480424186867 82.4002965891633 " stroke="#000000" stroke-width="0.35 px" style="stroke-width:0.35;stroke-miterlimit:4;stroke-dasharray:none;fill:none;fill-opacity:1;fill-rule: evenodd"/>
<circle cx="-306.64804241868677" cy="75.15029658916332" r="1.75" stroke="#000000" stroke-width="0.35 px" style="stroke-width:0.35;stroke-miterlimit:4;stroke-dasharray:none;fill:none"/>
<circle cx="-206.64804241868677" cy="75.15029658916332" r="1.75" stroke="#000000" stroke-width="0.35 px" style="stroke-width:0.35;stroke-miterlimit:4;stroke-dasharray:none;fill:none"/>
<circle cx="-306.6480424186867" cy="-124.84970341083672" r="1.75" stroke="#000000" stroke-width="0.35 px" style="stroke-width:0.35;stroke-miterlimit:4;stroke-dasharray:none;fill:none"/>
<circle cx="-206.64804241868677" cy="-124.84970341083668" r="1.75" stroke="#000000" stroke-width="0.35 px" style="stroke-width:0.35;stroke-miterlimit:4;stroke-dasharray:none;fill:none"/>
<path id="Sketch_w0005"  d="M -441.1480424186867 -135.0997034108367 L -66.14804241868671 -135.0997034108367 L -66.14804241868671 -201.0997034108367 L -441.1480424186867 -201.0997034108367 L -441.1480424186867 -135.0997034108367 " stroke="#000000" stroke-width="0.35 px" style="stroke-width:0.35;stroke-miterlimit:4;stroke-dasharray:none;fill:none;fill-opacity:1;fill-rule: evenodd"/>
<path id="Sketch_w0006"  d="M -63.148042418686714 -135.0997034108367 L 106.35195758131326 -135.0997034108367 A 15 15 0 0 1 136.352 -135.1L 305.8519575813133 -135.0997034108367 L 305.8519575813133 -195.0997034108367 L -63.148042418686714 -195.0997034108367 L -63.148042418686714 -135.0997034108367 " stroke="#000000" stroke-width="0.35 px" style="stroke-width:0.35;stroke-miterlimit:4;stroke-dasharray:none;fill:none;fill-opacity:1;fill-rule: evenodd"/>
<path id="Sketch_w0007"  d="M -69.14804241868677 82.41651733608097 L 299.85195758131323 82.41651733608097 L 299.85195758131323 -132.08348266391903 L -69.14804241868677 -132.08348266391903 L -69.14804241868677 82.41651733608097 " stroke="#000000" stroke-width="0.35 px" style="stroke-width:0.35;stroke-miterlimit:4;stroke-dasharray:none;fill:none;fill-opacity:1;fill-rule: evenodd"/>
<circle cx="115.35195758131321" cy="-24.833482663919035" r="20.0" stroke="#000000" stroke-width="0.35 px" style="stroke-width:0.35;stroke-miterlimit:4;stroke-dasharray:none;fill:none"/>
<path id="Sketch_w0009"  d="M -261.6480424186869 -140.0997034108367 L -245.64804241868686 -140.0997034108367 L -245.64804241868686 -148.0997034108367 L -261.6480424186869 -148.0997034108367 L -261.6480424186869 -140.0997034108367 " stroke="#000000" stroke-width="0.35 px" style="stroke-width:0.35;stroke-miterlimit:4;stroke-dasharray:none;fill:none;fill-opacity:1;fill-rule: evenodd"/>
<circle cx="-176.648911" cy="55.144226" r="3.0" stroke="#000000" stroke-width="0.35 px" style="stroke-width:0.35;stroke-miterlimit:4;stroke-dasharray:none;fill:none"/>
<path id="Sketch_w0011"  d="M -441.1480424186867 -204.0997034108367 L -226.64804241868674 -204.0997034108367 L -226.64804241868674 -270.0997034108367 L -441.1480424186867 -270.0997034108367 L -441.1480424186867 -204.0997034108367 " stroke="#000000" stroke-width="0.35 px" style="stroke-width:0.35;stroke-miterlimit:4;stroke-dasharray:none;fill:none;fill-opacity:1;fill-rule: evenodd"/>
<path id="Sketch_w0012"  d="M -223.64804241868674 -204.0997034108367 L -9.148042418686742 -204.0997034108367 L -9.148042418686742 -270.0997034108367 L -223.64804241868674 -270.0997034108367 L -223.64804241868674 -204.0997034108367 " stroke="#000000" stroke-width="0.35 px" style="stroke-width:0.35;stroke-miterlimit:4;stroke-dasharray:none;fill:none;fill-opacity:1;fill-rule: evenodd"/>
<title>b'Sketch'</title>
</g>
</svg>